<svg width="193" height="88" viewBox="0 0 193 88" fill="none" xmlns="http://www.w3.org/2000/svg">
<path fill-rule="evenodd" clip-rule="evenodd" d="M24.5814 31.9617H37.8208V33.6507H25.3635C25.0997 33.1093 24.8359 32.5494 24.5814 31.9617ZM23.2579 28.5882H37.8161V30.2773H23.8827C23.6744 29.7266 23.4662 29.1667 23.2579 28.5882ZM22.189 25.2101H37.8208V26.8946H22.698C22.5222 26.3485 22.3556 25.7886 22.189 25.2101ZM16.1825 25.2101H19.3569C19.5004 25.7701 19.6531 26.3346 19.8151 26.8946H17.02L18.9127 28.5882H20.3102C20.4814 29.162 20.6573 29.7266 20.8285 30.2773H20.8007L20.8377 30.3097C21.1524 31.3046 21.4578 32.2486 21.7262 33.1047C18.6906 31.175 15.5716 29.8191 13.5725 29.25C14.5212 27.8015 15.405 26.4688 16.1825 25.2101ZM21.3098 21.832H37.8208V23.5211H21.7262C21.5828 22.9704 21.444 22.4105 21.3098 21.832ZM18.0751 21.832H18.6258C18.7137 22.3781 18.8248 22.938 18.9543 23.5211H17.1913C17.5152 22.9473 17.8113 22.3827 18.0751 21.832ZM20.5925 18.454H37.8208V20.143H20.9349C20.8146 19.5923 20.7035 19.0324 20.5925 18.454ZM20.0233 15.0805H37.8208V16.7695H20.2917C20.1945 16.2142 20.1066 15.6543 20.0233 15.0805ZM30.2548 38.7132H37.8208V40.4023H32.152L34.0401 42.096H37.8254V43.7804H35.9327L37.8254 45.4694H0V43.7804V42.096V40.4023V38.7132V37.0242V35.3398V33.6461V31.9571V30.268V28.579V26.8853V25.2009V23.5118V21.8228V20.1291V18.4401V16.751V15.0805V13.3961V11.7024H37.8254V13.3961H1.89266L3.78532 15.0805H19.8197C19.63 15.6543 19.4402 16.2142 19.2551 16.7695H5.68261L7.57526 18.4586H18.6721C18.4685 19.0324 18.2602 19.5923 18.0335 20.1476H9.46329L11.3513 21.8413H17.3208C17.0617 22.4059 16.7933 22.9658 16.4971 23.5303H13.244L15.1366 25.2194H15.5392C14.7711 26.4688 13.8641 27.7368 12.7535 29.0556L12.0408 28.9307L12.6285 29.1806C12.5313 29.287 12.4203 29.3657 12.3324 29.4813C11.0598 31.4342 5.69648 35.3722 4.59976 36.5383C4.1185 37.052 5.01624 37.959 5.66872 37.7137C6.52481 37.3805 9.83349 34.5577 13.4522 29.4767C15.9603 30.4901 20.0788 33.1695 23.3921 36.6494C25.4606 40.2912 28.3575 42.7253 32.5269 42.5217C30.6111 41.5175 28.2464 39.0881 26.0252 34.9418L26.4833 35.3537H37.83V37.0381H28.376L30.2548 38.7132Z" fill="#D61D11"/>
<path fill-rule="evenodd" clip-rule="evenodd" d="M74.1975 35.1408C74.1975 35.9182 73.6237 36.5522 72.9064 36.5522H63.5449C63.1331 36.5522 62.749 36.4041 62.4436 36.1589C61.9669 35.7887 61.6661 35.1824 61.6661 34.4929C61.6661 33.8543 61.9253 33.2944 62.3325 32.915C62.6611 32.6142 63.0822 32.4337 63.5449 32.4337H74.1975V35.1408ZM86.8029 20.7955C86.2105 15.6636 82.2031 11.7024 77.3535 11.7024H52.4435V20.7955H72.2262C73.3183 20.7955 74.2021 21.7673 74.2021 22.9565V24.5947H56.8443C53.5449 24.5947 50.8609 27.5285 50.8701 31.1472C50.8701 33.623 50.8748 36.4365 50.8748 38.9261C50.8748 42.5402 53.5448 45.4648 56.8535 45.4648H77.3535C81.3331 45.4648 84.7529 42.7901 86.1735 38.9909C86.4604 38.2227 86.6687 37.4083 86.789 36.5522C86.8538 36.0617 86.8908 35.548 86.8908 35.0251V22.1375C86.8815 21.684 86.8584 21.2351 86.8029 20.7955Z" fill="#D61D11"/>
<path fill-rule="evenodd" clip-rule="evenodd" d="M180.251 35.1408C180.251 35.9182 179.677 36.5522 178.96 36.5522H169.599C169.187 36.5522 168.807 36.4041 168.497 36.1589C168.021 35.7887 167.715 35.1824 167.715 34.4929C167.715 33.8543 167.974 33.2944 168.386 32.915C168.719 32.6142 169.136 32.4337 169.599 32.4337H180.251V35.1408ZM192.852 20.7955C192.26 15.6636 188.252 11.7024 183.403 11.7024H158.493V20.7955H178.275C179.367 20.7955 180.251 21.7673 180.251 22.9565V24.5947H162.893C159.589 24.5947 156.91 27.5285 156.915 31.1472C156.915 33.623 156.924 36.4365 156.924 38.9261C156.924 42.5402 159.594 45.4648 162.898 45.4648H183.403C187.382 45.4648 190.797 42.7901 192.218 38.9909C192.509 38.2227 192.718 37.4083 192.838 36.5522C192.903 36.0617 192.94 35.548 192.94 35.0251V22.1375C192.935 21.684 192.907 21.2351 192.852 20.7955Z" fill="#D61D11"/>
<path d="M154.522 9.26819C154.522 9.26819 151.042 9.27282 147.858 9.27745C146.637 9.28207 145.646 10.3742 145.679 11.7115V11.7439H154.522V20.7954H145.831V45.4554H132.472V20.7861H128.464V11.7162H132.467C132.467 8.62034 133.61 5.81143 135.461 3.78458C137.312 1.75309 139.876 0.503662 142.708 0.503662H154.522V9.26819Z" fill="black"/>
<path d="M90.1768 0.619385V45.4462H103.411V0.619385H90.1768ZM116.6 30.5224C116.29 30.0551 116.012 29.5414 115.781 28.9861C115.545 28.4354 115.434 27.9172 115.434 27.4498C115.434 27.112 115.508 26.7001 115.661 26.2327C115.827 25.7561 116.012 25.3628 116.248 25.0203L125.526 11.7116H113.134L106.193 22.5122C105.684 23.3266 105.253 24.118 104.883 24.863C104.513 25.608 104.314 26.5937 104.314 27.8339C104.314 28.3892 104.406 29.1388 104.582 30.0551C104.758 30.9713 105.267 32.0403 106.123 33.2758L114.545 45.4416H127.419L116.6 30.5224Z" fill="black"/>
<path d="M92.3006 75.6084C92.3006 76.52 92.5042 77.0892 92.9068 77.3113C93.3094 77.5334 93.9804 77.6214 94.929 77.5751L94.9984 80.3099C94.6699 80.3562 94.3598 80.3932 94.0683 80.4164C93.7768 80.4395 93.4991 80.4534 93.2446 80.4534C92.4255 80.4534 91.7638 80.3562 91.264 80.1572C90.7596 79.9583 90.357 79.6667 90.0516 79.278C89.7462 78.8939 89.5426 78.4265 89.4361 77.8759C89.3297 77.3252 89.2788 76.7005 89.2788 75.9971V55.127H92.3006V75.6084ZM101.949 57.5795C101.949 58.0932 101.764 58.5374 101.389 58.9123C101.014 59.2871 100.57 59.4722 100.056 59.4722C99.5658 59.4722 99.1308 59.2871 98.7606 58.9123C98.3858 58.5374 98.2007 58.0932 98.2007 57.5795C98.2007 57.0659 98.3858 56.6263 98.7606 56.2653C99.1354 55.9044 99.5658 55.7239 100.056 55.7239C100.57 55.7239 101.014 55.9044 101.389 56.2653C101.759 56.6263 101.949 57.0659 101.949 57.5795ZM98.5801 80.2405V62.841H101.597V80.2405H98.5801ZM111.384 62.6652C112.014 62.6652 112.759 62.7994 113.61 63.0678C114.462 63.3362 115.545 63.8822 116.854 64.6967L117.206 62.8364H119.871V81.2864C119.871 82.2905 119.668 83.179 119.256 83.9518C118.849 84.7246 118.298 85.3724 117.609 85.9C116.919 86.4275 116.128 86.8255 115.239 87.0939C114.351 87.3623 113.425 87.4965 112.467 87.4965C111.44 87.4965 110.366 87.3206 109.256 86.9643C108.145 86.608 107.123 86.0157 106.188 85.1874L108.048 82.9708C108.33 83.2299 108.65 83.4613 109.011 83.6742C109.372 83.8824 109.76 84.0582 110.167 84.2017C110.575 84.3405 110.973 84.4516 111.361 84.5349C111.745 84.6182 112.102 84.6598 112.43 84.6598C112.99 84.6598 113.536 84.5904 114.059 84.4516C114.587 84.3174 115.059 84.0814 115.48 83.7575C115.901 83.4382 116.234 83.017 116.479 82.508C116.725 81.999 116.85 81.3743 116.85 80.6292V78.6163C115.679 79.3289 114.633 79.8102 113.712 80.0554C112.787 80.2961 112.009 80.4164 111.38 80.4164C109.672 80.4164 108.275 79.8842 107.187 78.8199C106.1 77.7556 105.558 76.2285 105.558 74.2433V68.8753C105.558 66.8855 106.1 65.3584 107.187 64.2802C108.279 63.2066 109.677 62.6652 111.384 62.6652ZM116.854 67.7601C115.989 67.1307 115.077 66.6078 114.119 66.2099C113.161 65.8119 112.342 65.6129 111.662 65.6129C110.704 65.6129 109.95 65.8813 109.399 66.4181C108.849 66.9595 108.576 67.9221 108.576 69.3057V73.8777C108.576 75.215 108.858 76.1683 109.418 76.7467C109.978 77.3206 110.727 77.5936 111.662 77.5704C112.389 77.5704 113.222 77.3992 114.17 77.0614C115.119 76.7236 116.012 76.2794 116.854 75.7379V67.7601ZM131.94 62.6652C133.833 62.6652 135.244 63.202 136.165 64.2802C137.09 65.3538 137.549 66.8855 137.549 68.8753V80.2405H134.531V69.264C134.531 67.9082 134.24 66.9595 133.657 66.4227C133.074 65.8859 132.333 65.6176 131.445 65.6176C130.718 65.6176 129.89 65.7934 128.955 66.1451C128.02 66.4968 127.109 66.9642 126.22 67.5472V80.2452H123.203V55.1316H126.22V64.8124C127.622 63.9007 128.77 63.3177 129.659 63.0585C130.547 62.7948 131.306 62.6652 131.94 62.6652ZM151.51 79.8241C150.83 80.0601 150.126 80.2081 149.386 80.2914C148.65 80.3747 148.104 80.4164 147.757 80.4164C145.906 80.4164 144.564 79.9953 143.736 79.1531C142.912 78.3109 142.495 76.9087 142.495 74.942V65.5435H140.038V62.841H142.565L143.273 58.8058H145.512V62.841H150.353V65.5435H145.512V74.0535C145.512 74.7615 145.577 75.34 145.707 75.7935C145.836 76.2516 146.012 76.6172 146.234 76.8856C146.456 77.154 146.73 77.3344 147.058 77.427C147.387 77.5195 147.761 77.5658 148.183 77.5658C148.581 77.5658 149.02 77.5381 149.497 77.4779C149.978 77.4177 150.487 77.353 151.024 77.2835L151.51 79.8241ZM157.576 57.5795C157.576 58.0932 157.391 58.5374 157.016 58.9123C156.642 59.2871 156.197 59.4722 155.684 59.4722C155.193 59.4722 154.758 59.2871 154.388 58.9123C154.013 58.5374 153.828 58.0932 153.828 57.5795C153.828 57.0659 154.013 56.6263 154.388 56.2653C154.763 55.9044 155.193 55.7239 155.684 55.7239C156.197 55.7239 156.642 55.9044 157.016 56.2653C157.391 56.6263 157.576 57.0659 157.576 57.5795ZM154.212 80.2405V62.841H157.229V80.2405H154.212ZM170.136 62.6652C171.843 62.6652 173.176 63.202 174.134 64.2802C175.092 65.3538 175.573 66.8855 175.573 68.8753V80.2405H172.556V69.264C172.556 67.9082 172.264 66.9549 171.681 66.4042C171.098 65.8536 170.358 65.5898 169.469 65.6129C168.766 65.6129 167.942 65.7934 166.998 66.1543C166.049 66.5153 165.133 66.978 164.245 67.538V80.2359H161.228V62.8364H163.893L164.245 64.7661C164.994 64.2987 165.665 63.9239 166.262 63.6416C166.859 63.3593 167.391 63.1511 167.859 63.0123C168.326 62.8734 168.747 62.7763 169.122 62.73C169.492 62.693 169.83 62.6652 170.136 62.6652ZM184.448 62.6652C185.078 62.6652 185.823 62.7994 186.674 63.0678C187.526 63.3362 188.609 63.8822 189.918 64.6967L190.27 62.8364H192.935V81.2864C192.935 82.2905 192.732 83.179 192.32 83.9518C191.913 84.7246 191.362 85.3724 190.673 85.9C189.983 86.4275 189.192 86.8255 188.303 87.0939C187.415 87.3623 186.489 87.4965 185.531 87.4965C184.504 87.4965 183.43 87.3206 182.32 86.9643C181.209 86.608 180.187 86.0157 179.252 85.1874L181.112 82.9708C181.394 83.2299 181.714 83.4613 182.075 83.6742C182.436 83.8824 182.824 84.0582 183.231 84.2017C183.639 84.3405 184.037 84.4516 184.425 84.5349C184.809 84.6182 185.166 84.6598 185.494 84.6598C186.054 84.6598 186.6 84.5904 187.123 84.4516C187.651 84.3174 188.123 84.0814 188.544 83.7575C188.965 83.4382 189.298 83.017 189.543 82.508C189.789 81.999 189.914 81.3743 189.914 80.6292V78.6163C188.743 79.3289 187.697 79.8102 186.776 80.0554C185.851 80.2961 185.073 80.4164 184.444 80.4164C182.736 80.4164 181.339 79.8842 180.251 78.8199C179.164 77.7556 178.622 76.2285 178.622 74.2433V68.8753C178.622 66.8855 179.164 65.3584 180.251 64.2802C181.343 63.2066 182.741 62.6652 184.448 62.6652ZM189.918 67.7601C189.053 67.1307 188.141 66.6078 187.183 66.2099C186.225 65.8119 185.406 65.6129 184.726 65.6129C183.768 65.6129 183.014 65.8813 182.463 66.4181C181.913 66.9595 181.64 67.9221 181.64 69.3057V73.8777C181.64 75.215 181.922 76.1683 182.482 76.7467C183.042 77.3206 183.791 77.5936 184.726 77.5704C185.453 77.5704 186.286 77.3992 187.234 77.0614C188.183 76.7236 189.076 76.2794 189.918 75.7379V67.7601Z" fill="#646464"/>
</svg>
