<svg width="133" height="72" viewBox="0 0 133 72" fill="none" xmlns="http://www.w3.org/2000/svg">
<path d="M75.5029 0.528336C74.3521 0.830647 72.7471 1.34457 71.9294 1.70735C70.3546 2.37243 66.9324 4.5793 66.3873 5.27461C65.9633 5.75831 66.2359 6.90709 67.7804 11.2604C68.2952 12.7417 68.9009 14.5253 69.1432 15.1904C70.0215 17.881 71.8082 21.9924 72.0202 21.8412C72.1414 21.7506 72.959 19.9669 73.8373 17.8507C74.7155 15.7043 75.5938 13.5579 75.8058 13.0742C76.0178 12.5603 76.4418 11.4418 76.7446 10.5651L77.2897 8.99304H80.1062H82.9226L83.5283 10.2023C83.8615 10.8371 84.134 11.5324 84.134 11.6836C84.134 11.865 84.4672 12.7417 84.8911 13.6486C85.3151 14.5556 85.6482 15.3718 85.6482 15.4323C85.6482 15.5229 86.3448 17.0647 87.1928 18.8484L88.7373 22.1436L89.131 21.0855C89.3732 20.5111 90.2515 18.1833 91.0995 15.9462C91.9474 13.7091 92.9165 11.1697 93.2194 10.3534C93.5525 9.50697 93.9765 8.05587 94.1582 7.08848C94.5822 5.00253 94.4005 4.66999 91.4023 2.94682C86.8293 0.286488 80.2576 -0.711138 75.5029 0.528336Z" fill="white"/>
<path d="M36.5875 0.830112C28.8347 2.88583 23.6258 7.66233 21.0819 15.0992C20.2036 17.6688 20.1431 18.2432 20.1431 21.6896C20.1431 25.015 20.2339 25.7707 20.991 28.0381C22.1721 31.696 25.2611 36.8051 26.2908 36.8051C26.5028 36.8051 26.5937 34.175 26.5937 28.8241C26.5937 20.0571 26.8662 17.7595 28.2593 15.0085C29.3798 12.8621 33.014 9.29481 35.1036 8.32742C43.2501 4.5183 53.0926 8.62973 55.9696 17.0037C56.8176 19.4222 56.8176 23.9267 55.9696 26.3451C54.8794 29.5799 52.82 32.3309 50.2156 34.0843C47.9745 35.6261 46.7934 36.0795 44.0375 36.533C41.0394 36.9865 38.2532 36.5632 35.2853 35.1726C34.1042 34.5982 33.014 34.2052 32.8928 34.2657C32.7717 34.3564 32.6506 35.8982 32.6506 37.712C32.6506 41.763 32.7414 41.8839 36.7692 42.8513C43.7044 44.514 51.6086 42.2769 56.8479 37.1376C58.1198 35.8679 59.5735 34.1145 60.0883 33.2076L61.0271 31.6053L62.8139 34.1145C64.6613 36.7446 67.296 39.5259 67.932 39.5259C68.144 39.5259 68.4771 39.7375 68.6891 39.9794C69.1736 40.5537 71.2027 41.4607 74.2917 42.4885C76.3814 43.1838 77.2293 43.2745 80.5 43.2745C83.8313 43.2745 84.5582 43.1838 86.6478 42.4583C94.3098 39.798 98.9433 35.1424 101.275 27.8869C102.032 25.4684 102.123 24.7429 102.123 21.5384C102.093 18.4548 101.972 17.5479 101.275 15.5224C100.276 12.5598 100.034 12.1063 99.761 12.59C99.6398 12.7714 98.9736 14.5248 98.3073 16.4898C97.6411 18.4246 96.46 21.7802 95.7331 23.9569C94.976 26.1033 94.0978 28.6427 93.7949 29.5496C93.4618 30.4566 92.9167 31.9379 92.5533 32.7844L91.887 34.3866H89.1008C86.0421 34.3866 86.0724 34.4168 85.1941 32.2704C84.8913 31.5147 84.3462 30.2147 83.9828 29.3985C83.6193 28.552 83.1954 27.5544 83.0742 27.1311C82.5291 25.3173 80.5303 21.0849 80.2275 21.0849C79.8035 21.0849 77.7744 25.8312 77.2899 27.8869C77.1688 28.3706 76.987 28.9148 76.8659 29.0962C76.7751 29.2473 76.2905 30.3659 75.8362 31.5751C75.382 32.7541 74.8368 33.9029 74.5946 34.0843C74.3523 34.2959 73.1409 34.3866 71.4147 34.3261L68.6285 34.2354L67.6291 31.3635C67.084 29.7915 65.9029 26.5265 65.055 24.108C64.1767 21.6896 63.359 19.1804 63.1773 18.5153C63.0259 17.8502 62.6322 16.4293 62.2688 15.341C60.2397 8.81112 54.8188 3.2486 48.4591 1.22312C45.1581 0.134796 39.7977 -0.0163574 36.5875 0.830112Z" fill="white"/>
<path d="M39.6461 13.2553C34.3464 14.3134 31.2876 20.3596 33.6195 25.3175C35.5577 29.4894 39.8279 31.5451 44.0071 30.3056C46.975 29.4592 48.2167 28.4918 49.7612 25.771C50.5183 24.471 50.6394 23.9269 50.6697 21.9921C50.6697 20.0875 50.5486 19.4829 49.7914 18.0621C48.7012 15.9459 48.1864 15.4017 46.2179 14.2227C44.4311 13.1646 41.9175 12.8018 39.6461 13.2553Z" fill="white"/>
<path d="M126.926 42.7607C126.563 42.8212 125.897 43.3049 125.473 43.7886C123.807 45.7838 124.746 49.1395 127.169 49.8348C130.439 50.8324 133.226 47.6884 131.711 44.756C131.378 44.0909 130.924 43.3956 130.682 43.2142C130.197 42.7909 127.926 42.5189 126.926 42.7607ZM130.5 44.3327C132.862 46.6907 129.773 50.4696 126.775 48.8674C125.806 48.3535 125.231 46.6303 125.624 45.3908C126.321 43.2746 128.895 42.7305 130.5 44.3327Z" fill="white"/>
<path d="M126.684 44.4237C126.593 44.6353 126.593 45.4213 126.654 46.1771C126.714 46.9329 126.775 47.7189 126.805 47.9003C126.866 48.5049 127.441 48.3537 127.441 47.7491C127.441 46.7817 127.835 46.7515 128.713 47.5979C129.652 48.4746 130.227 48.3235 129.591 47.3259C129.319 46.9026 129.288 46.6305 129.531 46.3887C130.167 45.7538 129.924 44.6655 129.076 44.3632C128.016 43.94 126.835 44.0004 126.684 44.4237ZM128.895 45.4818C128.955 45.7236 128.713 45.8748 128.228 45.8748C127.471 45.8748 127.229 45.5725 127.653 45.1492C127.956 44.8469 128.743 45.0585 128.895 45.4818Z" fill="white"/>
<path d="M0.094639 59.6599C-0.0567834 66.7642 -0.0264989 70.8152 0.185492 71.0268C0.336915 71.1779 1.51801 71.3895 2.78996 71.4802L5.09158 71.6616V67.8223V64.0132H6.93893C10.7851 64.0132 13.9649 62.3807 15.358 59.6901C16.4483 57.5437 16.418 54.4299 15.2672 52.344C14.3586 50.6813 12.7838 49.4418 10.9971 48.9279C10.3308 48.7465 7.66576 48.5953 5.06129 48.5953H0.336915L0.094639 59.6599ZM9.66454 53.7648C10.7851 54.3392 10.7548 57.9669 9.63425 58.5716C9.33141 58.7227 8.1806 58.8739 7.09035 58.8739H5.09158V56.1833C5.09158 53.8555 5.15215 53.4625 5.6367 53.3416C6.4241 53.1602 9.05885 53.4323 9.66454 53.7648Z" fill="white"/>
<path d="M64.9336 49.5626C65.0245 50.1067 65.2365 51.2253 65.3879 52.0718C65.5393 52.888 65.8725 55.3367 66.1147 57.5134C66.3267 59.6598 66.7507 62.9247 66.993 64.7688C67.2656 66.5827 67.5381 68.8802 67.629 69.8174L67.8107 71.5708H71.2631C73.171 71.5708 74.7761 71.4499 74.867 71.2987C74.9578 71.1476 75.2001 69.9686 75.3515 68.6686C75.5332 67.3385 75.9572 64.92 76.26 63.2573C76.5932 61.5945 76.9263 59.4179 77.0474 58.4203C77.2292 56.7273 77.2594 56.6669 77.6228 57.3622C77.8651 57.7854 78.1377 58.9947 78.2285 60.083C78.3497 61.1713 78.6828 63.4084 79.0159 65.0711C79.3188 66.7338 79.6822 68.85 79.8033 69.7569L80.0456 71.4196H83.498H86.9808L87.223 70.5127C87.3442 69.9988 87.6167 68.0942 87.7984 66.2804C87.9499 64.4363 88.2224 62.4712 88.3738 61.8969C88.5253 61.3225 88.7978 59.2063 88.9795 57.211C89.1612 55.2158 89.5247 52.5252 89.7669 51.1951C89.9789 49.8951 90.1909 48.7766 90.1909 48.7161C90.1909 48.6254 89.0098 48.6254 87.5562 48.6556L84.9214 48.7463L84.4066 52.2229C84.1037 54.1275 83.71 57.332 83.498 59.3272L83.1043 62.9549L82.7106 61.1411C82.4987 60.1435 81.9232 56.939 81.469 54.0368L80.621 48.7463L77.532 48.6556C74.5338 48.565 74.443 48.5952 74.3218 49.2603C74.1098 50.3788 72.9893 57.0297 72.5956 59.6295C72.4139 60.9597 72.1414 62.1689 72.0202 62.2899C71.8991 62.441 71.6871 61.5643 71.5962 60.3248C71.4751 59.1156 71.1117 55.9716 70.7483 53.3415L70.082 48.5952H67.417H64.7822L64.9336 49.5626Z" fill="white"/>
<path d="M108.271 55.9717C107.998 65.0712 108.21 68.2153 109.089 69.5454C109.906 70.7245 111.087 71.3291 112.965 71.5105L114.419 71.6616V69.4548C114.419 67.7014 114.298 67.1874 113.904 66.8549C113.419 66.5223 113.359 65.6154 113.207 57.6042L113.056 48.7465L110.754 48.6558L108.453 48.5651L108.271 55.9717Z" fill="white"/>
<path d="M116.236 58.3598C116.236 67.2175 116.296 68.2152 116.781 69.1523C117.447 70.422 119.507 71.5708 121.142 71.5708H122.293V69.3639C122.293 67.5198 122.202 67.1268 121.687 66.7943C121.112 66.4315 121.081 66.099 121.081 57.5134V48.5952H118.659H116.236V58.3598Z" fill="white"/>
<path d="M29.5616 49.3512C27.0177 50.772 27.9868 54.6416 30.9244 54.6416C31.5603 54.6416 32.3175 54.5207 32.6203 54.3393C33.9528 53.644 34.1648 50.772 32.9837 49.6837C32.1963 48.9582 30.5307 48.807 29.5616 49.3512Z" fill="white"/>
<path d="M56.3634 52.8578L54.4555 53.4625V54.7624C54.4555 56.0321 54.3949 56.1228 53.2441 56.5763C52.0327 57.0599 52.0327 57.0599 52.0327 58.7227V60.3854H53.2138H54.3949L54.516 64.3759C54.6675 69.2733 55.0612 70.3314 56.9388 71.2988C57.9382 71.8127 58.7559 71.9639 60.4518 71.9639C61.6632 71.9639 62.7837 71.8429 62.9654 71.6616C63.1168 71.5104 63.238 70.543 63.1774 69.5756C63.0866 67.8524 63.0563 67.792 62.178 67.7013C60.6941 67.5501 59.6038 67.006 59.4221 66.3107C59.3313 65.9781 59.301 64.527 59.3616 63.1062L59.4524 60.5365L61.3603 60.4458L63.238 60.3551V58.2692V56.1832L61.3603 56.0926L59.4524 56.0019L59.3616 54.0973C59.2707 51.9207 59.2707 51.9207 56.3634 52.8578Z" fill="white"/>
<path d="M22.202 56.3046C21.4449 56.5767 20.8998 56.6372 20.7181 56.4558C20.5364 56.2744 19.6884 56.1535 18.8102 56.1535H17.2051V63.8624V71.6016L19.7187 71.5109L22.202 71.4202L22.2929 66.1297C22.3837 60.0231 22.3534 60.0835 25.1396 60.0835H26.8961V57.9674V55.8512H25.1699C24.2008 55.8814 22.8683 56.0628 22.202 56.3046Z" fill="white"/>
<path d="M43.0986 56.1232C42.4323 56.2441 41.5843 56.5162 41.1906 56.7278C40.585 57.0603 40.4032 57.0301 39.949 56.6371C39.6159 56.3348 38.8587 56.1534 38.0108 56.1534H36.5874V63.6809V71.2387L37.8896 71.4201C38.5862 71.541 39.7067 71.5712 40.373 71.5108L41.5843 71.4201L41.6752 65.9785C41.7358 62.9856 41.8266 60.4764 41.8872 60.416C41.978 60.3555 42.6746 60.2346 43.4923 60.1439C44.5219 60.0532 45.0368 60.1439 45.3093 60.4462C45.5516 60.7485 45.6727 62.6531 45.7333 66.1599L45.8242 71.4201H48.3984H50.9725L51.0331 66.2808C51.124 59.4184 51.0028 58.451 49.7914 57.1208C48.8526 56.1232 48.7012 56.0627 46.551 55.972C45.3093 55.9418 43.7648 56.0022 43.0986 56.1232Z" fill="white"/>
<path d="M96.1267 56.0625C95.6119 56.1531 94.6125 56.8182 93.704 57.7554C91.8263 59.6297 91.2206 61.5645 91.4932 64.769C91.7355 67.8223 92.9166 69.9687 95.0365 71.1175C96.581 71.964 96.9141 72.0245 99.5792 71.9942C101.154 71.964 103.001 71.7524 103.668 71.5408L104.879 71.1175L104.97 69.0316C105.03 67.3084 104.97 66.9759 104.606 67.127C103.637 67.4898 99.3369 68.034 98.6403 67.8526C97.6409 67.6107 96.9444 67.0061 96.7021 66.1899L96.5204 65.5248H100.73C103.88 65.5248 105.03 65.4341 105.303 65.1318C105.515 64.8295 105.545 63.8923 105.363 61.9575C105.151 59.5088 105 59.0856 104.122 57.9972C103.607 57.3019 102.88 56.6066 102.517 56.4252C101.85 56.0625 97.5501 55.8206 96.1267 56.0625ZM100.033 60.2343C101.063 61.2622 101.033 62.1691 99.9728 62.2598C98.9432 62.3203 96.7324 62.1691 96.6113 62.0482C96.2781 61.7459 96.9747 60.1134 97.5501 59.8413C98.61 59.3274 99.246 59.4181 100.033 60.2343Z" fill="white"/>
<path d="M28.6222 56.3343C28.3194 56.6669 28.3799 66.3711 28.7131 67.7617C29.2582 70.1197 31.045 71.5406 33.498 71.5708H34.77V69.5453C34.77 67.8826 34.6488 67.3989 34.1037 66.7943C33.4374 66.1292 33.4072 65.7967 33.3466 61.2015L33.2557 56.3041L31.045 56.2134C29.8336 56.1832 28.7433 56.2134 28.6222 56.3343Z" fill="white"/>
</svg>
