<svg width="100" height="54" viewBox="0 0 100 54" fill="none" xmlns="http://www.w3.org/2000/svg">
<path d="M67.2979 15.8137C67.4797 15.3826 68.1385 13.6368 68.7744 11.9593C69.4104 10.2815 70.1371 8.37707 70.3643 7.76492C70.6141 7.13018 70.932 6.04223 71.0684 5.31668C71.3863 3.75226 71.2504 3.5025 69.002 2.21023C65.5722 0.214985 60.6432 -0.533779 57.0771 0.395779C56.214 0.622515 55.0098 1.00846 54.3965 1.28054C53.2152 1.77956 50.649 3.43489 50.2402 3.95633C49.9226 4.31927 50.1271 5.18143 51.2852 8.44558C51.6713 9.55653 52.1259 10.8941 52.3076 11.3928C52.9661 13.41 54.305 16.492 54.4648 16.3811C54.5557 16.3131 55.1694 14.9751 55.8281 13.388C56.4868 11.7783 57.1457 10.1688 57.3047 9.80593C57.4637 9.42052 57.7817 8.58161 58.0088 7.9241L58.417 6.74441H62.6416L63.0967 7.65164C63.3465 8.12774 63.5508 8.64961 63.5508 8.76297C63.5511 8.89966 63.8004 9.55688 64.1182 10.2366C64.4361 10.9168 64.6865 11.5291 64.6865 11.5745C64.688 11.6455 65.2097 12.8003 65.8447 14.136L67.0029 16.6077L67.2979 15.8137ZM28.0264 32.1389C33.2278 33.386 39.1565 31.7083 43.0859 27.8538C44.0397 26.9017 45.1294 25.5868 45.5156 24.9065L46.2197 23.7044L47.5605 25.5862C48.9458 27.5584 50.9209 29.6439 51.3984 29.6448C51.5574 29.6448 51.8078 29.8042 51.9668 29.9856C52.3308 30.4164 53.8529 31.0968 56.1689 31.8675C57.7359 32.3888 58.3723 32.4563 60.8252 32.4563C63.3234 32.4563 63.8684 32.3881 65.4355 31.844C71.1821 29.8487 74.6573 26.357 76.4062 20.9153C76.974 19.1017 77.042 18.5576 77.042 16.1546C77.0193 13.8419 76.9287 13.161 76.4062 11.6419C75.6569 9.42034 75.4749 9.08001 75.2705 9.44265C75.1797 9.57869 74.6803 10.8938 74.1807 12.3675C73.681 13.8185 72.7951 16.3355 72.25 17.968C71.6822 19.5777 71.0231 21.482 70.7959 22.1624C70.546 22.8426 70.1378 23.9543 69.8652 24.5891L69.3652 25.7903H67.2754C64.9815 25.7903 65.0043 25.8131 64.3457 24.2034C64.1186 23.6366 63.7091 22.6613 63.4365 22.0491C63.164 21.4144 62.8467 20.6663 62.7559 20.3489C62.347 18.9885 60.8473 15.8137 60.6201 15.8137C60.3014 15.8164 58.7804 19.3739 58.417 20.9153C58.3262 21.2779 58.1905 21.6863 58.0996 21.8225C58.0315 21.9359 57.6679 22.775 57.3271 23.6819C56.9864 24.5662 56.5772 25.4277 56.3955 25.5637C56.2135 25.7224 55.3052 25.7907 54.0107 25.7454L51.9209 25.677L51.1719 23.5227C50.763 22.3436 49.8771 19.8951 49.2412 18.0813C48.5826 16.2677 47.9694 14.386 47.833 13.887C47.7194 13.3882 47.4239 12.3224 47.1514 11.5061C45.6295 6.60865 41.5638 2.43639 36.7939 0.917263C34.3183 0.101067 30.2983 -0.0114365 27.8906 0.623318C22.076 2.1651 18.1687 5.74694 16.2607 11.3245C15.602 13.2517 15.5566 13.6831 15.5566 16.2678C15.5566 18.7615 15.6247 19.3285 16.1924 21.0286C17.0782 23.7721 19.3957 27.6048 20.168 27.6048C20.3266 27.601 20.3945 25.6278 20.3945 21.6184C20.3945 15.0437 20.5989 13.3202 21.6436 11.2571C22.484 9.64729 25.2101 6.97194 26.7773 6.24636C32.8873 3.3895 40.2689 6.47266 42.4268 12.7532C43.0627 14.567 43.0627 17.9451 42.4268 19.7591C41.6091 22.1851 40.0647 24.2487 38.1113 25.5637C36.4305 26.7201 35.5445 27.0606 33.4775 27.4007C31.229 27.7407 29.139 27.4231 26.9131 26.3802C26.028 25.9497 25.2109 25.6546 25.1191 25.6995C25.0283 25.7675 24.9375 26.9241 24.9375 28.2845C24.9375 31.3227 25.0055 31.4134 28.0264 32.1389ZM25.6631 18.9886C27.1167 22.1175 30.3197 23.6593 33.4541 22.7298C35.68 22.0949 36.6111 21.369 37.7695 19.3284C38.3374 18.3534 38.4285 17.9455 38.4512 16.4944C38.4512 15.0662 38.3606 14.6125 37.793 13.5471C36.9753 11.96 36.5887 11.5515 35.1123 10.6673C33.7722 9.87371 31.8871 9.60162 30.1836 9.94168C26.2087 10.7352 23.9142 15.2701 25.6631 18.9886Z" fill="black"/>
<path d="M95.645 32.0712C95.3725 32.1165 94.8728 32.4793 94.5548 32.8421C93.3055 34.3385 94.0097 36.8553 95.8268 37.3768C98.2798 38.125 100.369 35.767 99.2338 33.5676C98.9839 33.0688 98.6432 32.5473 98.4615 32.4113C98.0981 32.0939 96.3946 31.8898 95.645 32.0712ZM98.3253 33.2502C100.097 35.0187 97.7801 37.8529 95.5315 36.6512C94.8046 36.2658 94.3731 34.9734 94.6684 34.0438C95.1908 32.4566 97.1214 32.0485 98.3253 33.2502Z" fill="black"/>
<path d="M95.4626 33.3182C95.3944 33.4769 95.3944 34.0665 95.4399 34.6333C95.4853 35.2001 95.5307 35.7896 95.5534 35.9257C95.5989 36.3792 96.0304 36.2658 96.0304 35.8123C96.0304 35.0868 96.3257 35.0641 96.9844 35.699C97.6885 36.3565 98.1201 36.2431 97.6431 35.4949C97.4387 35.1775 97.4159 34.9734 97.5977 34.792C98.0746 34.3159 97.8929 33.4996 97.257 33.2729C96.462 32.9555 95.5761 33.0008 95.4626 33.3182ZM97.1207 34.1118C97.1661 34.2932 96.9844 34.4066 96.621 34.4066C96.0531 34.4066 95.8714 34.1798 96.1894 33.8624C96.4165 33.6357 97.0071 33.7944 97.1207 34.1118Z" fill="black"/>
<path d="M0.520199 44.7457C0.406631 50.074 0.429344 53.1122 0.58834 53.271C0.701908 53.3843 1.58774 53.543 2.54171 53.6111L4.26795 53.7471V50.8676V48.0107H5.65348C8.53811 48.0107 10.923 46.7863 11.9679 44.7684C12.7856 43.1585 12.7628 40.8232 11.8997 39.2587C11.2183 38.0116 10.0372 37.082 8.6971 36.6966C8.1974 36.5605 6.19861 36.4472 4.24523 36.4472H0.701908L0.520199 44.7457ZM7.6977 40.3243C8.53811 40.7551 8.5154 43.476 7.67499 43.9294C7.44785 44.0428 6.58474 44.1562 5.76705 44.1562H4.26795V42.1382C4.26795 40.3924 4.31337 40.0976 4.67679 40.0069C5.26735 39.8709 7.24343 40.0749 7.6977 40.3243Z" fill="black"/>
<path d="M49.1497 37.1727C49.2178 37.5809 49.3768 38.4198 49.4904 39.0546C49.604 39.6668 49.8538 41.5034 50.0355 43.1359C50.1945 44.7457 50.5125 47.1945 50.6942 48.5775C50.8987 49.938 51.1031 51.6611 51.1712 52.364L51.3075 53.6791H53.8968C55.3278 53.6791 56.5316 53.5884 56.5998 53.475C56.6679 53.3617 56.8496 52.4774 56.9632 51.5024C57.0995 50.5048 57.4175 48.6909 57.6446 47.4439C57.8944 46.1968 58.1443 44.5643 58.2352 43.8161C58.3714 42.5464 58.3941 42.501 58.6667 43.0225C58.8484 43.3399 59.0528 44.2469 59.121 45.0631C59.2118 45.8794 59.4617 47.5572 59.7115 48.8043C59.9387 50.0513 60.2112 51.6385 60.3021 52.3187L60.4838 53.5657H63.0732H65.6852L65.8669 52.8855C65.9578 52.5001 66.1622 51.0716 66.2985 49.7112C66.4121 48.3281 66.6165 46.8543 66.73 46.4236C66.8436 45.9928 67.048 44.4056 67.1843 42.9091C67.3206 41.4127 67.5932 39.3947 67.7749 38.3971C67.9339 37.4221 68.0929 36.5832 68.0929 36.5379C68.0929 36.4699 67.207 36.4699 66.1168 36.4925L64.1407 36.5606L63.7546 39.168C63.5274 40.5964 63.2321 42.9998 63.0732 44.4963L62.7779 47.2171L62.4826 45.8567C62.3236 45.1085 61.892 42.7051 61.5513 40.5284L60.9154 36.5606L58.5986 36.4925C56.3499 36.4245 56.2818 36.4472 56.1909 36.946C56.0319 37.7849 55.1915 42.7731 54.8962 44.723C54.76 45.7207 54.5555 46.6276 54.4647 46.7183C54.3738 46.8317 54.2148 46.1741 54.1467 45.2445C54.0558 44.3376 53.7833 41.9795 53.5107 40.0069L53.011 36.4472H51.0122H49.0361L49.1497 37.1727Z" fill="black"/>
<path d="M81.6528 41.9795C81.4483 48.8043 81.6073 51.1623 82.266 52.16C82.8793 53.0442 83.7651 53.4977 85.1734 53.6337L86.2636 53.7471V52.0919C86.2636 50.7769 86.1728 50.3914 85.8775 50.142C85.5141 49.8926 85.4687 49.2124 85.3551 43.2039L85.2415 36.5605L83.5153 36.4925L81.789 36.4245L81.6528 41.9795Z" fill="black"/>
<path d="M87.626 43.7707C87.626 50.4141 87.6714 51.1623 88.0348 51.8652C88.5345 52.8175 90.079 53.6791 91.3056 53.6791H92.1687V52.0239C92.1687 50.6408 92.1006 50.3461 91.7144 50.0967C91.2829 49.8246 91.2602 49.5752 91.2602 43.1359V36.4472H89.4431H87.626V43.7707Z" fill="black"/>
<path d="M22.6196 37.014C20.7116 38.0797 21.4384 40.9819 23.6417 40.9819C24.1187 40.9819 24.6865 40.8912 24.9136 40.7552C25.913 40.2337 26.072 38.0797 25.1862 37.2634C24.5956 36.7193 23.3464 36.6059 22.6196 37.014Z" fill="black"/>
<path d="M42.7217 39.6441L41.2907 40.0976V41.0726C41.2907 42.0249 41.2453 42.0929 40.3822 42.433C39.4736 42.7958 39.4736 42.7958 39.4736 44.0428V45.2899H40.3595H41.2453L41.3361 48.2828C41.4497 51.9559 41.745 52.7495 43.1532 53.475C43.9028 53.8605 44.5161 53.9738 45.788 53.9738C46.6966 53.9738 47.537 53.8831 47.6733 53.7471C47.7868 53.6337 47.8777 52.9082 47.8322 52.1826C47.7641 50.8902 47.7414 50.8449 47.0827 50.7769C45.9697 50.6635 45.152 50.2554 45.0158 49.7339C44.9476 49.4845 44.9249 48.3961 44.9703 47.3305L45.0385 45.4032L46.4694 45.3352L47.8777 45.2672V43.7027V42.1382L46.4694 42.0702L45.0385 42.0022L44.9703 40.5738C44.9022 38.9413 44.9022 38.9413 42.7217 39.6441Z" fill="black"/>
<path d="M17.1013 42.2289C16.5334 42.433 16.1246 42.4784 15.9883 42.3423C15.852 42.2063 15.216 42.1156 14.5573 42.1156H13.3535V47.8973V53.7018L15.2387 53.6337L17.1013 53.5657L17.1694 49.5979C17.2375 45.0178 17.2148 45.0631 19.3045 45.0631H20.6219V43.476V41.8888H19.3272C18.6004 41.9115 17.601 42.0476 17.1013 42.2289Z" fill="black"/>
<path d="M32.7731 42.0929C32.2734 42.1836 31.6374 42.3877 31.3421 42.5464C30.8878 42.7958 30.7516 42.7731 30.4109 42.4783C30.161 42.2516 29.5932 42.1156 28.9572 42.1156H27.8896V47.7613V53.4297L28.8663 53.5657C29.3887 53.6564 30.2292 53.6791 30.7289 53.6337L31.6374 53.5657L31.7055 49.4845C31.751 47.2398 31.8191 45.3579 31.8645 45.3125C31.9327 45.2672 32.4551 45.1765 33.0684 45.1085C33.8406 45.0405 34.2267 45.1085 34.4312 45.3352C34.6129 45.562 34.7037 46.9904 34.7492 49.6205L34.8173 53.5657H36.748H38.6786L38.724 49.7112C38.7922 44.5643 38.7013 43.8388 37.7928 42.8411C37.0887 42.0929 36.9751 42.0476 35.3624 41.9795C34.4312 41.9569 33.2728 42.0022 32.7731 42.0929Z" fill="black"/>
<path d="M72.5452 42.0476C72.159 42.1156 71.4095 42.6144 70.7281 43.3173C69.3198 44.723 68.8655 46.1741 69.07 48.5775C69.2517 50.8676 70.1375 52.4774 71.7275 53.339C72.8859 53.9739 73.1357 54.0192 75.1345 53.9965C76.3156 53.9739 77.7011 53.8151 78.2008 53.6564L79.1094 53.339L79.1775 51.7745C79.223 50.4821 79.1775 50.2327 78.905 50.3461C78.1781 50.6182 74.9528 51.0263 74.4304 50.8902C73.6808 50.7089 73.1584 50.2554 72.9767 49.6432L72.8404 49.1444H75.9976C78.3598 49.1444 79.223 49.0764 79.4274 48.8496C79.5864 48.6229 79.6091 47.92 79.4728 46.4689C79.3138 44.6323 79.2002 44.3149 78.5415 43.4987C78.1554 42.9772 77.6103 42.4557 77.3377 42.3196C76.838 42.0476 73.6127 41.8662 72.5452 42.0476ZM75.4752 45.1765C76.2475 45.9474 76.2248 46.6276 75.4298 46.6956C74.6575 46.741 72.9994 46.6276 72.9086 46.5369C72.6587 46.3102 73.1811 45.0858 73.6127 44.8818C74.4077 44.4963 74.8847 44.5643 75.4752 45.1765Z" fill="black"/>
<path d="M21.9169 42.2516C21.6897 42.501 21.7351 49.7792 21.985 50.8222C22.3938 52.5908 23.7339 53.6564 25.5737 53.6791H26.5277V52.16C26.5277 50.9129 26.4369 50.5501 26.028 50.0967C25.5283 49.5979 25.5056 49.3484 25.4602 45.9021L25.392 42.2289L23.7339 42.1609C22.8254 42.1382 22.0077 42.1609 21.9169 42.2516Z" fill="black"/>
</svg>
