<svg width="16" height="22" viewBox="0 0 16 22" fill="none" xmlns="http://www.w3.org/2000/svg">
<path fill-rule="evenodd" clip-rule="evenodd" d="M1.55845 9.2083C0.47593 9.2083 0.25 9.4146 0.25 10.4028V12.1944C0.25 13.1826 0.47593 13.3889 1.55845 13.3889H4.17533V20.5556C4.17533 21.5438 4.40125 21.75 5.48377 21.75H8.10066C9.18316 21.75 9.40906 21.5438 9.40906 20.5556V13.3889H12.3475C13.1685 13.3889 13.3801 13.2432 13.6056 12.5226L14.1664 10.7309C14.5527 9.4965 14.3146 9.2083 12.9083 9.2083H9.40906V6.22222C9.40906 5.56255 9.99486 5.02778 10.7176 5.02778H14.4416C15.5241 5.02778 15.75 4.82154 15.75 3.83333V1.44444C15.75 0.45624 15.5241 0.25 14.4416 0.25H10.7176C7.10436 0.25 4.17533 2.92386 4.17533 6.22222V9.2083H1.55845Z" fill="#1C1C1C"/>
</svg>
