<svg width="1172" height="620" viewBox="0 0 1172 620" fill="none" xmlns="http://www.w3.org/2000/svg">
<path d="M985.69 301.262C989.152 293.056 1001.7 259.796 1013.82 227.833C1025.93 195.869 1039.78 159.586 1044.11 147.924C1048.87 135.829 1054.92 115.096 1057.52 101.274C1063.58 71.4704 1060.98 66.7189 1018.14 42.0984C952.805 4.08771 858.909 -10.1658 790.975 7.5437C774.532 11.863 751.599 19.2061 739.916 24.3894C717.415 33.892 668.52 65.4235 660.731 75.3582C654.674 82.2692 658.568 98.6824 680.636 160.882C687.992 182.047 696.646 207.531 700.107 217.034C712.656 255.476 738.184 314.219 741.214 312.061C742.945 310.765 754.627 285.28 767.176 255.045C779.724 224.377 792.273 193.71 795.302 186.799C798.331 179.456 804.389 163.473 808.716 150.947L816.504 128.486H896.986L905.641 145.764C910.4 154.835 914.295 164.77 914.295 166.929C914.295 169.522 919.055 182.048 925.112 195.006C931.17 207.964 935.93 219.626 935.93 220.49C935.931 221.789 945.883 243.816 957.998 269.299L980.065 316.381L985.69 301.262ZM237.554 612.259C336.643 636.015 449.578 604.052 524.436 530.623C542.609 512.481 563.379 487.429 570.735 474.47L584.148 451.578L609.679 487.428C636.073 525.007 673.717 564.745 682.805 564.746C685.834 564.746 690.594 567.769 693.623 571.224C700.546 579.431 729.537 592.39 773.673 607.076C803.529 617.01 815.645 618.306 862.377 618.306C909.974 618.306 920.359 617.01 950.216 606.643C1059.69 568.633 1125.89 502.114 1159.21 398.449C1170.03 363.894 1171.33 353.527 1171.33 307.742C1170.89 263.684 1169.16 250.726 1159.21 221.786C1144.93 179.456 1141.47 172.977 1137.58 179.887C1135.85 182.479 1126.33 207.531 1116.81 235.607C1107.29 263.251 1090.41 311.197 1080.03 342.297C1069.21 372.964 1056.66 409.248 1052.33 422.206C1047.57 435.164 1039.79 456.328 1034.59 468.423L1025.07 491.316H985.265C941.562 491.316 941.994 491.748 929.445 461.08C925.118 450.281 917.33 431.708 912.138 420.046C906.945 407.951 900.887 393.697 899.156 387.65C891.368 361.734 862.81 301.263 858.482 301.262C852.425 301.262 823.433 369.077 816.51 398.449C814.779 405.36 812.183 413.135 810.452 415.726C809.154 417.886 802.231 433.868 795.74 451.145C789.25 467.991 781.462 484.405 778 486.997C774.538 490.02 757.229 491.316 732.565 490.452L692.757 489.156L678.479 448.122C670.69 425.661 653.814 379.012 641.698 344.457C629.15 309.902 617.467 274.051 614.871 264.548C612.708 255.045 607.082 234.744 601.89 219.194C572.899 125.895 495.445 46.4182 404.577 17.4783C357.413 1.92841 280.825 -0.231201 234.958 11.863C124.186 41.2349 49.7611 109.481 13.4141 215.738C0.865686 252.453 7.15343e-07 260.66 0 309.901C0 357.414 1.29781 368.213 12.1152 400.608C28.9906 452.873 73.127 525.871 87.8389 525.871C90.8676 525.869 92.166 488.29 92.166 411.839C92.166 286.576 96.0605 253.749 115.965 214.442C131.975 183.774 183.898 132.806 213.755 118.984C330.152 64.5598 470.781 123.304 511.888 242.951C524.003 277.506 524.003 341.865 511.888 376.42C496.31 422.637 466.886 461.944 429.674 486.997C397.654 509.026 380.778 515.504 341.402 521.983C298.565 528.462 258.756 522.416 216.352 502.547C199.477 494.34 183.9 488.724 182.168 489.588C180.437 490.883 178.706 512.913 178.706 538.829C178.706 596.709 180.004 598.437 237.554 612.259ZM192.555 361.734C220.248 421.342 281.259 450.713 340.972 433.004C383.377 420.909 401.118 407.087 423.186 368.213C434.003 349.639 435.733 341.864 436.166 314.22C436.166 287.008 434.436 278.369 423.618 258.068C408.041 227.832 400.685 220.057 372.56 203.212C347.03 188.094 311.116 182.91 278.663 189.389C202.94 204.507 159.237 290.896 192.555 361.734Z" fill="#F2F2F2"/>
</svg>
